# xmcd
#
# Track frame offsets: 
#        150
#        3922
#        14645
#        25850
#        38060
#        49570
#        52807
#        55510
#        65075
#        77400
#        90770
#        98475
#        101690
#        104675
#        116207
#        127067
#        137862
#        147177
#        150340
#        154820
#        165302
#        177707
#        188247
#        193612
#        199935
#        203210
#        205977
#        217632
#        230085
#        242887
#        253805
#        256505
#        259517
#        272722
#        278615
#        292327
#        305545
#
# Disc length: 4106 seconds
#
# Revision: 0
# Processed by: cddbd v1.5.2PL0 Copyright (c) Steve Scherf et al.
# Submitted via: ExactAudioCopy v0.99pb4
#
DISCID=0b100825
DTITLE=Jim Reeves - Radio Days Volume 2 - Disc 1
DYEAR=2001
DGENRE=Country
TTITLE0=Stay A Little Longer - Intro
TTITLE1=Tweedle O'Twill
TTITLE2=Each Time You Leave
TTITLE3=I've Lived A Lot In My Time
TTITLE4=My Lips Are Sealed
TTITLE5=Outro
TTITLE6=Stay A Little Longer - Intro
TTITLE7=Roly Poly
TTITLE8=Have I Told You Lately That I Love You
TTITLE9=It Is No Secret
TTITLE10=Yonder Comes A Sucker
TTITLE11=Outro
TTITLE12=Stay A Little Longer - Intro
TTITLE13=Each Time You Leave
TTITLE14=Everywhere You Go
TTITLE15=Where Does A Broken Heart Go
TTITLE16=Yonder Comes A Sucker
TTITLE17=Outro
TTITLE18=Stay A Little Longer - Intro
TTITLE19=Waiting For A Train
TTITLE20=Am I Losing You
TTITLE21=My Lips Are Sealed
TTITLE22=Steelin' Home (Leo Jackson and Jimmy Day)
TTITLE23=According To My Heart
TTITLE24=Outro
TTITLE25=Stay A Little Longer - Intro
TTITLE26=Waiting For A Train
TTITLE27=Four Walls
TTITLE28=How Many
TTITLE29=Kentucky Waltz
TTITLE30=Outro
TTITLE31=Stay A Little Longer - Intro
TTITLE32=Have I Told You Lately That I Love You
TTITLE33=Mexican Joe
TTITLE34=Blues In My Heart
TTITLE35=I Get The Blues When It Rains
TTITLE36=Outro
EXTD=
EXTT0=
EXTT1=
EXTT2=
EXTT3=
EXTT4=
EXTT5=
EXTT6=
EXTT7=
EXTT8=
EXTT9=
EXTT10=
EXTT11=
EXTT12=
EXTT13=
EXTT14=
EXTT15=
EXTT16=
EXTT17=
EXTT18=
EXTT19=
EXTT20=
EXTT21=
EXTT22=
EXTT23=
EXTT24=
EXTT25=
EXTT26=
EXTT27=
EXTT28=
EXTT29=
EXTT30=
EXTT31=
EXTT32=
EXTT33=
EXTT34=
EXTT35=
EXTT36=
PLAYORDER=
